<svg aria-hidden="true" style="width:0;height:0;position:absolute;overflow:hidden" xmlns="http://www.w3.org/2000/svg"><defs><symbol id="icon-ligth" viewBox="0 0 32 32"><path d="M14.634 1.699a1.999 1.999 0 0 1 2.733 0l3.101 2.902c.118.11.272.174.434.18l4.245.14a2 2 0 0 1 1.933 1.933l.14 4.245a.665.665 0 0 0 .18.434l2.902 3.101c.72.769.72 1.964 0 2.733L27.4 20.468a.672.672 0 0 0-.18.433l-.14 4.245a2 2 0 0 1-1.933 1.933l-4.245.14a.665.665 0 0 0-.434.18l-3.101 2.902c-.769.72-1.964.72-2.733 0l-3.101-2.902a.668.668 0 0 0-.434-.18l-4.245-.14a2 2 0 0 1-1.933-1.933l-.14-4.245a.662.662 0 0 0-.18-.433l-2.902-3.101a1.999 1.999 0 0 1 0-2.733l2.902-3.101a.673.673 0 0 0 .18-.434l.14-4.245a2 2 0 0 1 1.933-1.933l4.245-.14a.663.663 0 0 0 .434-.18l3.101-2.902zm1.822.974a.666.666 0 0 0-.911 0l-3.101 2.902a2.002 2.002 0 0 1-1.301.539l-4.245.14a.666.666 0 0 0-.644.644l-.14 4.245a1.999 1.999 0 0 1-.539 1.301l-2.902 3.101a.666.666 0 0 0 0 .911l2.902 3.101c.331.354.523.816.539 1.301l.14 4.245a.666.666 0 0 0 .644.644l4.245.14c.484.016.947.207 1.301.539l3.101 2.902c.256.24.655.24.911 0l3.101-2.902a2.002 2.002 0 0 1 1.301-.539l4.245-.14a.666.666 0 0 0 .644-.644l.141-4.245c.016-.485.207-.947.539-1.301l2.902-3.101a.666.666 0 0 0 0-.911l-2.902-3.101a2.002 2.002 0 0 1-.539-1.301l-.141-4.245a.666.666 0 0 0-.644-.644l-4.245-.14a1.999 1.999 0 0 1-1.301-.539l-3.101-2.902z"/><path d="M13.599 8.873c2.256 1.564 3.735 4.172 3.735 7.127s-1.479 5.563-3.735 7.127a7.333 7.333 0 1 0 0-14.254zm-1.877-.753A8.667 8.667 0 0 1 24 16.001a8.667 8.667 0 0 1-12.278 7.881.667.667 0 0 1 0-1.212 7.335 7.335 0 0 0 0-13.338.667.667 0 0 1 0-1.212z"/></symbol><symbol id="icon-dark" viewBox="0 0 32 32"><path d="m14.178 1.213-3.101 2.902-4.245.14a2.665 2.665 0 0 0-2.577 2.577l-.14 4.245-2.902 3.101a2.667 2.667 0 0 0 0 3.645l2.902 3.101.14 4.245a2.665 2.665 0 0 0 2.577 2.577l4.245.14 3.101 2.902c1.025.96 2.619.96 3.644 0l3.101-2.902 4.245-.14a2.666 2.666 0 0 0 2.577-2.577l.141-4.245 2.902-3.101a2.667 2.667 0 0 0 0-3.645l-2.902-3.101-.141-4.245a2.665 2.665 0 0 0-2.577-2.577l-4.245-.14-3.101-2.902a2.665 2.665 0 0 0-3.644 0zm-2.734 6.301a9.333 9.333 0 1 1 0 16.972 1.333 1.333 0 0 1 0-2.424c2.298-1.055 3.889-3.374 3.889-6.063s-1.591-5.008-3.889-6.063a1.333 1.333 0 0 1 0-2.424z"/></symbol></defs></svg>