<svg aria-hidden="true" style="position: absolute; width: 0; height: 0; overflow: hidden;" version="1.1" xmlns="http://www.w3.org/2000/svg" xmlns:xlink="http://www.w3.org/1999/xlink">
<defs>
<symbol id="icon-ligth" viewBox="0 0 32 32">
<path d="M14.634 1.699c0.769-0.72 1.964-0.72 2.733 0l3.101 2.902c0.118 0.11 0.272 0.174 0.434 0.18l4.245 0.14c1.053 0.035 1.898 0.88 1.933 1.933l0.14 4.245c0.005 0.161 0.069 0.316 0.18 0.434l2.902 3.101c0.72 0.769 0.72 1.964 0 2.733l-2.902 3.101c-0.11 0.118-0.174 0.272-0.18 0.433l-0.14 4.245c-0.035 1.053-0.88 1.898-1.933 1.933l-4.245 0.14c-0.161 0.005-0.316 0.069-0.434 0.18l-3.101 2.902c-0.769 0.72-1.964 0.72-2.733 0l-3.101-2.902c-0.118-0.111-0.272-0.174-0.434-0.18l-4.245-0.14c-1.053-0.035-1.898-0.88-1.933-1.933l-0.14-4.245c-0.005-0.161-0.069-0.315-0.18-0.433l-2.902-3.101c-0.72-0.769-0.72-1.964 0-2.733l2.902-3.101c0.11-0.118 0.174-0.272 0.18-0.434l0.14-4.245c0.035-1.053 0.88-1.898 1.933-1.933l4.245-0.14c0.162-0.005 0.316-0.069 0.434-0.18l3.101-2.902zM16.456 2.673c-0.256-0.24-0.655-0.24-0.911 0l-3.101 2.902c-0.354 0.331-0.816 0.523-1.301 0.539l-4.245 0.14c-0.351 0.012-0.633 0.293-0.644 0.644l-0.14 4.245c-0.016 0.484-0.207 0.947-0.539 1.301l-2.902 3.101c-0.24 0.256-0.24 0.655 0 0.911l2.902 3.101c0.331 0.354 0.523 0.816 0.539 1.301l0.14 4.245c0.012 0.351 0.293 0.633 0.644 0.644l4.245 0.14c0.484 0.016 0.947 0.207 1.301 0.539l3.101 2.902c0.256 0.24 0.655 0.24 0.911 0l3.101-2.902c0.354-0.331 0.816-0.523 1.301-0.539l4.245-0.14c0.351-0.012 0.633-0.293 0.644-0.644l0.141-4.245c0.016-0.485 0.207-0.947 0.539-1.301l2.902-3.101c0.24-0.256 0.24-0.655 0-0.911l-2.902-3.101c-0.331-0.354-0.523-0.816-0.539-1.301l-0.141-4.245c-0.012-0.351-0.293-0.633-0.644-0.644l-4.245-0.14c-0.484-0.016-0.947-0.207-1.301-0.539l-3.101-2.902z"></path>
<path d="M13.599 8.873c2.256 1.564 3.735 4.172 3.735 7.127s-1.479 5.563-3.735 7.127c0.556 0.135 1.137 0.206 1.735 0.206 4.050 0 7.333-3.283 7.333-7.333s-3.283-7.333-7.333-7.333c-0.598 0-1.179 0.071-1.735 0.206zM11.722 8.12c1.1-0.505 2.324-0.786 3.611-0.786 4.787 0 8.667 3.88 8.667 8.667s-3.88 8.667-8.667 8.667c-1.287 0-2.511-0.281-3.611-0.786-0.237-0.109-0.389-0.345-0.389-0.606s0.152-0.497 0.389-0.606c2.526-1.159 4.278-3.71 4.278-6.669s-1.752-5.509-4.278-6.669c-0.237-0.109-0.389-0.345-0.389-0.606s0.152-0.497 0.389-0.606z"></path>
</symbol>
<symbol id="icon-dark" viewBox="0 0 32 32">
<path d="M14.178 1.213l-3.101 2.902-4.245 0.14c-1.404 0.046-2.531 1.173-2.577 2.577l-0.14 4.245-2.902 3.101c-0.96 1.025-0.96 2.619 0 3.645l2.902 3.101 0.14 4.245c0.046 1.404 1.173 2.531 2.577 2.577l4.245 0.14 3.101 2.902c1.025 0.96 2.619 0.96 3.644 0l3.101-2.902 4.245-0.14c1.403-0.046 2.531-1.173 2.577-2.577l0.141-4.245 2.902-3.101c0.96-1.025 0.96-2.619 0-3.645l-2.902-3.101-0.141-4.245c-0.046-1.404-1.173-2.531-2.577-2.577l-4.245-0.14-3.101-2.902c-1.025-0.96-2.619-0.96-3.644 0zM11.444 7.514c1.186-0.544 2.504-0.847 3.889-0.847 5.155 0 9.333 4.179 9.333 9.333s-4.179 9.333-9.333 9.333c-1.385 0-2.704-0.303-3.889-0.847-0.474-0.217-0.777-0.691-0.777-1.212s0.304-0.995 0.777-1.212c2.298-1.055 3.889-3.374 3.889-6.063s-1.591-5.008-3.889-6.063c-0.474-0.217-0.777-0.691-0.777-1.212s0.304-0.994 0.777-1.212z"></path>
</symbol>
</defs>
</svg>
